<svg version="1.1" id="Layer_1" xmlns="http://www.w3.org/2000/svg" xmlns:xlink="http://www.w3.org/1999/xlink" x="0px" y="0px"
	 width="100%" viewBox="0 0 322 247" enable-background="new 0 0 322 247" xml:space="preserve">
<path fill="#FEFDFE" opacity="1.000000" stroke="none" 
	d="
M201.000000,248.000000 
	C134.000015,248.000000 67.500015,248.000000 1.000018,248.000000 
	C1.000012,165.666687 1.000012,83.333366 1.000006,1.000040 
	C108.333305,1.000027 215.666611,1.000027 322.999939,1.000013 
	C322.999939,83.333290 322.999939,165.666580 322.999969,247.999939 
	C282.500000,248.000000 242.000000,248.000000 201.000000,248.000000 
M46.336117,76.033318 
	C46.161793,76.431557 45.987469,76.829803 45.552395,77.630676 
	C45.424438,77.991447 45.523239,78.272469 45.154564,78.765488 
	C44.060688,81.327583 42.966808,83.889671 41.349224,86.829262 
	C41.209534,87.227112 41.069847,87.624969 40.744762,88.500252 
	C40.763474,88.837769 40.782181,89.175278 40.308113,89.888657 
	C40.149998,90.590904 39.991882,91.293144 39.457378,92.768654 
	C39.357742,94.199097 39.258106,95.629539 38.689487,97.508240 
	C38.521938,98.358269 38.354389,99.208305 37.465809,100.278572 
	C36.451393,101.499863 35.436974,102.721153 34.493416,104.003090 
	C34.493416,104.003090 34.554688,103.932762 34.467735,103.142464 
	C33.993599,102.964218 33.519459,102.785973 32.268032,102.566895 
	C20.221397,106.543655 13.521983,120.162842 15.858958,132.023148 
	C18.004354,142.911209 22.460794,152.783890 29.384361,161.456985 
	C47.111305,183.663376 69.805771,200.108078 93.011093,216.807877 
	C91.860329,217.902405 90.892471,219.422531 89.524063,220.010635 
	C85.619286,221.688797 81.136818,222.366898 77.699471,224.662857 
	C75.548706,226.099442 73.822006,229.774445 73.888794,232.394485 
	C73.937775,234.316101 76.956161,236.560669 79.119873,237.909286 
	C81.003403,239.083252 83.524574,239.292023 85.796249,239.775757 
	C97.735367,242.318161 109.798454,241.775085 122.109505,241.820496 
	C124.114845,241.966965 126.120178,242.113434 129.046021,242.273392 
	C153.031296,242.196838 177.016571,242.120285 201.933029,242.164673 
	C212.868027,241.689957 223.836914,241.581711 234.722702,240.574921 
	C239.641373,240.120010 244.394684,237.877365 249.841202,236.112991 
	C254.067413,231.491333 252.828995,226.210754 246.660080,223.635635 
	C241.710022,221.569305 236.593445,219.901825 230.586563,217.704666 
	C232.908905,215.897278 234.344009,214.611267 235.937149,213.566193 
	C256.165894,200.296356 275.218384,185.598587 291.449310,167.528458 
	C298.730225,159.422501 304.590179,150.412918 307.983124,139.926529 
	C313.332764,123.392914 308.927338,109.133598 294.888519,102.983101 
	C288.465942,100.169327 286.122894,96.482307 285.819946,90.301132 
	C285.811798,90.135193 285.806030,89.964333 285.762970,89.805580 
	C282.438019,77.548607 276.473236,67.737045 262.691467,64.792892 
	C262.395355,64.627495 262.147064,64.689400 261.244354,64.791733 
	C260.197052,63.299126 259.016144,61.881413 258.129211,60.298908 
	C256.032990,56.558720 254.076569,52.740154 252.007812,48.970135 
	C252.007812,48.970135 252.065674,48.940544 252.311020,48.281887 
	C252.124115,47.858494 251.937210,47.435104 251.556442,46.412178 
	C250.056122,44.931499 248.555801,43.450817 246.704086,41.404774 
	C245.184341,40.435253 243.664597,39.465733 241.837112,37.915535 
	C237.883881,36.639099 233.930664,35.362663 229.177658,33.947781 
	C222.118851,33.632015 215.060028,33.316250 207.427490,32.834835 
	C207.053177,32.702560 206.678848,32.570282 206.152176,31.768372 
	C192.584167,-2.814732 142.834412,-3.569348 125.825539,21.614235 
	C119.958374,30.301249 114.186539,32.563011 104.427292,32.487209 
	C90.776360,32.381191 78.699303,37.322937 71.323860,50.907406 
	C70.969887,51.604370 70.615921,52.301334 69.828621,53.634819 
	C69.163536,56.572853 68.498451,59.510883 67.261940,62.808754 
	C66.689682,63.490318 66.117416,64.171883 65.079689,64.737587 
	C64.751114,64.716064 64.441788,64.783211 63.895161,64.721848 
	C63.537483,64.598015 63.257080,64.696892 62.305347,65.000183 
	C58.873257,66.746094 55.441166,68.492012 51.415775,70.270195 
	C50.925953,70.839752 50.436127,71.409309 49.379261,72.267418 
	C48.895050,73.160332 48.410839,74.053238 47.990768,75.001266 
	C47.990768,75.001266 47.948666,74.928032 47.467876,74.924477 
	C47.157772,75.070457 46.954159,75.307785 46.336117,76.033318 
z"/>
<path fill="#F38FB1" opacity="1.000000" stroke="none" 
	d="
M34.554688,103.932762 
	C34.554688,103.932762 34.493416,104.003090 34.894619,103.983627 
	C39.507278,104.017975 41.443718,101.784615 41.949051,97.739616 
	C42.294804,94.971970 43.101387,92.263695 43.660847,89.520493 
	C44.410954,85.842484 45.121357,82.156372 45.848801,78.473740 
	C45.523239,78.272469 45.424438,77.991447 45.974739,77.380646 
	C46.593128,77.120079 46.789173,77.109550 47.270454,76.938126 
	C47.686684,76.160828 47.817673,75.544426 47.948666,74.928032 
	C47.948666,74.928032 47.990768,75.001266 48.326141,75.028122 
	C49.842236,74.097984 51.022957,73.140984 52.557045,72.115829 
	C55.771374,70.799103 58.556305,68.750832 61.509285,68.470085 
	C67.474586,67.902939 69.489510,64.592628 71.224518,59.338444 
	C75.235374,47.192211 83.452980,38.901943 96.543480,36.999023 
	C103.220078,36.028465 110.092354,36.476170 116.837463,35.859425 
	C118.775131,35.682255 121.546799,34.500622 122.287567,32.977692 
	C127.697350,21.855745 135.784485,13.761861 147.692261,10.183981 
	C161.728668,5.966519 175.474426,6.810467 188.179489,14.712086 
	C195.556351,19.299957 200.260620,26.316208 204.054626,34.323936 
	C205.397888,35.085857 206.698212,35.525024 208.420715,35.963654 
	C215.559250,35.984413 222.275604,36.005711 229.235748,36.292934 
	C233.623627,38.061275 237.767700,39.563686 241.927597,41.056850 
	C241.943405,41.047604 241.956543,41.065113 242.011353,41.376232 
	C242.707718,42.127674 243.349243,42.568001 244.157608,43.251472 
	C244.868607,43.694435 245.412781,43.894245 246.112762,44.379440 
	C247.477493,45.825558 248.686417,46.986298 250.097931,48.383526 
	C250.888901,48.726856 251.477295,48.833702 252.065674,48.940544 
	C252.065674,48.940544 252.007812,48.970135 251.962845,49.360352 
	C253.578384,55.188084 255.238892,60.625599 256.974182,66.370514 
	C257.701233,67.061859 258.353485,67.445816 259.421631,67.868988 
	C266.901917,67.979164 271.913300,71.440094 276.101654,76.959923 
	C281.019073,83.440536 283.028748,90.874199 283.852112,98.633896 
	C284.221344,102.113411 285.242889,103.420929 288.687592,104.099800 
	C300.309540,106.390274 309.147034,119.942810 306.630463,130.717209 
	C303.069336,145.963943 295.688416,158.925827 284.600098,169.997269 
	C267.382385,187.188797 248.400665,202.042435 227.463531,214.417084 
	C226.052505,215.251053 224.690140,216.167313 223.305130,217.045288 
	C223.544373,217.656265 223.783630,218.267227 224.022873,218.878204 
	C226.201904,219.811234 228.337570,220.867737 230.568985,221.651657 
	C235.229263,223.288788 239.981888,224.668213 244.616699,226.370941 
	C248.216385,227.693405 250.306595,229.955994 247.628967,234.071259 
	C245.017548,234.753616 242.821671,235.763107 240.554581,235.962357 
	C227.368271,237.121185 214.165207,238.089600 200.501923,239.097778 
	C175.697754,239.090134 151.359512,239.107101 126.553146,239.088776 
	C124.923958,239.039108 123.757927,239.089249 122.602554,239.000534 
	C109.659012,238.006592 96.699173,237.164185 83.791077,235.824570 
	C81.427902,235.579330 77.860443,233.701111 77.322060,231.855286 
	C76.188385,227.968536 80.020264,226.936813 83.024780,225.808731 
	C87.046776,224.298645 91.003990,222.615982 95.389236,221.006378 
	C97.501060,220.116928 99.212662,219.228531 100.924255,218.340134 
	C99.611618,217.231094 98.298973,216.122070 96.687622,214.858276 
	C84.762886,205.910110 73.135376,197.118668 61.511280,188.322723 
	C47.915249,178.034607 36.129547,165.941055 26.663616,151.793045 
	C23.535904,147.118301 21.476719,141.564529 19.809736,136.141922 
	C18.900349,133.183731 20.113901,129.638733 19.882416,126.393158 
	C19.337711,118.756081 21.518593,112.481300 28.018635,108.017036 
	C29.768463,106.815254 31.424135,105.476379 33.479782,104.127319 
	C34.075928,104.013725 34.315308,103.973244 34.554688,103.932762 
M160.066086,205.946625 
	C160.066086,205.946625 160.133133,205.809921 160.341751,206.369263 
	C160.703979,206.488190 161.066208,206.607101 161.978729,206.690536 
	C162.529099,206.702850 163.079453,206.715179 164.412949,206.881073 
	C166.576645,205.186569 168.740341,203.492081 171.303726,201.372375 
	C171.850250,201.187393 172.396790,201.002411 173.297028,201.371902 
	C175.833313,199.842712 178.369614,198.313522 180.970398,196.261841 
	C180.954285,196.087097 180.938171,195.912354 181.576813,195.961441 
	C182.034805,195.905441 182.492813,195.849442 183.321686,196.363525 
	C187.306915,195.916382 191.207687,195.321442 193.009552,190.921692 
	C193.009552,190.921692 192.906052,190.909409 193.687302,190.982147 
	C195.094788,189.948639 196.502258,188.915115 198.013550,187.934357 
	C198.013550,187.934357 197.901566,187.906357 198.656540,187.973038 
	C199.392334,187.222626 200.128143,186.472198 201.106293,185.353714 
	C201.313934,185.129089 201.568558,184.991119 202.620148,184.990021 
	C209.307053,182.907166 211.428879,176.634262 215.037552,171.675552 
	C215.845718,170.565048 217.756561,169.492767 219.035248,169.623215 
	C224.151169,170.145218 225.789749,169.107788 225.936661,163.991821 
	C226.089279,158.677094 226.288071,153.326462 225.824036,148.048035 
	C225.613068,145.648407 223.853714,143.384918 222.647995,140.789154 
	C222.647995,140.789154 222.693604,140.483841 222.902344,139.719208 
	C222.649170,138.361877 222.794479,136.202988 222.050415,135.833069 
	C220.904083,135.263168 218.449890,135.345200 217.778488,136.161102 
	C215.555313,138.862869 213.881622,142.016785 211.311234,145.085052 
	C207.677734,148.106735 203.991089,151.068802 200.465836,154.211838 
	C199.911484,154.706070 200.088486,156.020599 199.883408,157.633789 
	C199.938431,158.080826 199.993454,158.527863 200.024551,159.708755 
	C199.363724,162.490067 198.702911,165.271378 197.997391,168.007004 
	C197.997391,168.007004 198.045120,168.044785 197.224411,168.007294 
	C193.213455,169.266037 189.266876,170.885498 185.162033,171.618332 
	C183.343353,171.943008 180.975052,170.827286 179.274506,169.721924 
	C177.516891,168.579468 176.266815,166.656204 174.606735,164.598907 
	C174.598083,164.261230 174.589432,163.923538 174.826706,162.621902 
	C174.853714,160.638779 175.395233,158.492569 174.826431,156.698318 
	C170.211212,142.139542 172.596588,127.172653 171.964554,112.386200 
	C171.772568,107.894318 173.936081,105.345886 177.980209,103.927887 
	C178.768555,103.651466 179.357224,102.805573 180.844025,102.035309 
	C182.220078,101.999084 183.596115,101.962852 185.414719,102.489761 
	C189.288513,104.044960 191.421951,100.949043 192.263214,98.607552 
	C193.340210,95.609879 194.800385,91.705246 190.882248,88.190331 
	C187.753143,84.707108 184.010590,86.004730 180.282028,86.751526 
	C175.934525,87.622292 175.193375,86.471596 176.280579,82.180122 
	C177.752151,76.371468 179.488831,70.488968 179.824753,64.565163 
	C180.393127,54.541851 170.518463,46.128384 160.597794,47.364254 
	C147.340500,49.015785 140.191452,64.311157 147.127029,75.765175 
	C148.795792,78.521095 149.502747,81.859390 151.062469,86.026428 
	C146.135239,86.026428 142.808517,85.686134 139.598648,86.151588 
	C137.611801,86.439697 135.802536,87.952492 133.171783,89.156616 
	C130.093491,96.126961 132.633453,101.702072 139.777328,103.333725 
	C141.844193,103.805809 144.023483,103.905556 146.155807,103.948441 
	C152.219803,104.070412 153.021729,104.784462 153.001175,110.928696 
	C152.943192,128.262482 153.844208,145.604431 150.139679,162.800293 
	C148.434616,170.714905 143.534744,173.775314 135.988510,170.372650 
	C133.411743,169.210754 130.447617,168.907898 127.155792,168.063019 
	C126.765724,167.726151 126.375656,167.389297 126.005203,166.273712 
	C126.089729,164.050659 124.292862,161.419098 127.399475,159.852219 
	C126.591492,158.256393 125.783516,156.660568 124.574379,154.520584 
	C123.706635,154.355118 122.838898,154.189667 121.533073,153.836533 
	C121.268509,153.645081 121.071892,153.399277 120.767853,152.597870 
	C120.458679,152.453766 120.149513,152.309662 120.008774,152.132538 
	C120.008774,152.132538 119.851074,152.200531 119.678932,151.640366 
	C119.169456,151.400940 118.659981,151.161514 118.071815,150.932053 
	C118.071815,150.932053 118.076981,150.852905 118.035233,150.143234 
	C116.275375,148.526245 114.515518,146.909256 112.779427,145.252365 
	C112.779427,145.252365 112.770485,145.206787 112.682678,144.652466 
	C112.368858,144.478043 112.055038,144.303604 111.281525,143.810440 
	C110.855919,143.208313 110.430321,142.606186 109.986794,141.386688 
	C109.600143,140.964111 109.213501,140.541519 108.990135,139.993713 
	C108.990135,139.993713 108.833443,140.125061 108.892181,139.460617 
	C108.469162,139.034866 108.046150,138.609100 107.216171,137.837845 
	C106.772766,137.282944 106.329353,136.728058 105.872070,135.500687 
	C104.656006,135.966629 102.561638,136.190964 102.356911,136.935150 
	C99.699547,146.594467 97.688683,156.350891 100.072678,166.423660 
	C100.698944,169.069733 101.785583,170.329346 104.944588,169.682007 
	C106.529343,169.357254 108.487991,170.722717 110.242531,171.412796 
	C111.248512,171.808456 112.184349,172.382462 113.140945,172.977417 
	C113.140945,172.977417 113.126198,172.879211 113.034698,173.678650 
	C112.980850,177.283218 114.284409,179.729721 118.780693,180.187622 
	C119.569695,181.028061 120.358696,181.868500 121.108292,183.446426 
	C124.813484,189.996765 131.346848,192.075363 138.155411,194.810791 
	C139.308243,195.070541 140.461075,195.330292 142.108139,195.598145 
	C142.435516,195.668457 142.734238,195.802567 143.096542,196.689011 
	C148.439072,199.416183 153.781601,202.143372 159.064102,205.002075 
	C159.064102,205.002075 159.093597,204.860733 159.247025,205.381073 
	C159.558228,205.536133 159.869415,205.691193 160.066086,205.946625 
z"/>
<path fill="#C57A93" opacity="1.000000" stroke="none" 
	d="
M256.899384,66.063118 
	C255.238892,60.625599 253.578384,55.188084 251.990738,49.351925 
	C254.076569,52.740154 256.032990,56.558720 258.129211,60.298908 
	C259.016144,61.881413 260.197052,63.299126 261.813629,64.903999 
	C262.382904,65.016266 262.818115,65.056648 262.818115,65.056648 
	C276.473236,67.737045 282.438019,77.548607 285.762970,89.805580 
	C285.806030,89.964333 285.811798,90.135193 285.819946,90.301132 
	C286.122894,96.482307 288.465942,100.169327 294.888519,102.983101 
	C308.927338,109.133598 313.332764,123.392914 307.983124,139.926529 
	C304.590179,150.412918 298.730225,159.422501 291.449310,167.528458 
	C275.218384,185.598587 256.165894,200.296356 235.937149,213.566193 
	C234.344009,214.611267 232.908905,215.897278 230.586563,217.704666 
	C236.593445,219.901825 241.710022,221.569305 246.660080,223.635635 
	C252.828995,226.210754 254.067413,231.491333 249.400711,235.961182 
	C248.644012,235.214294 248.327805,234.619186 248.011597,234.024094 
	C250.306595,229.955994 248.216385,227.693405 244.616699,226.370941 
	C239.981888,224.668213 235.229263,223.288788 230.568985,221.651657 
	C228.337570,220.867737 226.201904,219.811234 224.022873,218.878204 
	C223.783630,218.267227 223.544373,217.656265 223.305130,217.045288 
	C224.690140,216.167313 226.052505,215.251053 227.463531,214.417084 
	C248.400665,202.042435 267.382385,187.188797 284.600098,169.997269 
	C295.688416,158.925827 303.069336,145.963943 306.630463,130.717209 
	C309.147034,119.942810 300.309540,106.390274 288.687592,104.099800 
	C285.242889,103.420929 284.221344,102.113411 283.852112,98.633896 
	C283.028748,90.874199 281.019073,83.440536 276.101654,76.959923 
	C271.913300,71.440094 266.901917,67.979164 259.366119,67.564117 
	C258.229553,66.834389 257.564484,66.448753 256.899384,66.063118 
z"/>
<path fill="#C57892" opacity="1.000000" stroke="none" 
	d="
M204.011719,34.001183 
	C200.260620,26.316208 195.556351,19.299957 188.179489,14.712086 
	C175.474426,6.810467 161.728668,5.966519 147.692261,10.183981 
	C135.784485,13.761861 127.697350,21.855745 122.287567,32.977692 
	C121.546799,34.500622 118.775131,35.682255 116.837463,35.859425 
	C110.092354,36.476170 103.220078,36.028465 96.543480,36.999023 
	C83.452980,38.901943 75.235374,47.192211 71.224518,59.338444 
	C69.489510,64.592628 67.474586,67.902939 61.509285,68.470085 
	C58.556305,68.750832 55.771374,70.799103 52.501778,72.067062 
	C52.093143,72.086433 51.985622,71.985580 51.991302,71.693710 
	C52.001015,71.013870 52.005047,70.625900 52.009079,70.237930 
	C55.441166,68.492012 58.873257,66.746094 62.954388,64.995438 
	C63.786194,64.973465 63.968956,64.956245 64.151718,64.939034 
	C64.441788,64.783211 64.751114,64.716064 65.721954,64.798813 
	C66.853935,64.056328 67.343651,63.252621 67.833374,62.448917 
	C68.498451,59.510883 69.163536,56.572853 70.368423,53.238991 
	C71.221443,52.080811 71.534660,51.318455 71.847878,50.556103 
	C78.699303,37.322937 90.776360,32.381191 104.427292,32.487209 
	C114.186539,32.563011 119.958374,30.301249 125.825539,21.614235 
	C142.834412,-3.569348 192.584167,-2.814732 206.048767,32.434021 
	C205.300797,33.400173 204.656265,33.700676 204.011719,34.001183 
z"/>
<path fill="#C47791" opacity="1.000000" stroke="none" 
	d="
M33.123024,104.200432 
	C31.424135,105.476379 29.768463,106.815254 28.018635,108.017036 
	C21.518593,112.481300 19.337711,118.756081 19.882416,126.393158 
	C20.113901,129.638733 18.900349,133.183731 19.809736,136.141922 
	C21.476719,141.564529 23.535904,147.118301 26.663616,151.793045 
	C36.129547,165.941055 47.915249,178.034607 61.511280,188.322723 
	C73.135376,197.118668 84.762886,205.910110 96.581711,215.075287 
	C96.576073,215.716812 96.316780,215.900940 95.615723,215.999084 
	C94.472786,216.005417 93.710777,216.012070 92.948761,216.018723 
	C69.805771,200.108078 47.111305,183.663376 29.384361,161.456985 
	C22.460794,152.783890 18.004354,142.911209 15.858958,132.023148 
	C13.521983,120.162842 20.221397,106.543655 32.656136,102.988106 
	C33.070507,103.673027 33.096767,103.936729 33.123024,104.200432 
z"/>
<path fill="#C57A93" opacity="1.000000" stroke="none" 
	d="
M92.979927,216.413300 
	C93.710777,216.012070 94.472786,216.005417 95.612564,216.368805 
	C95.656563,218.161697 95.322784,219.584564 94.989014,221.007431 
	C91.003990,222.615982 87.046776,224.298645 83.024780,225.808731 
	C80.020264,226.936813 76.188385,227.968536 77.322060,231.855286 
	C77.860443,233.701111 81.427902,235.579330 83.791077,235.824570 
	C96.699173,237.164185 109.659012,238.006592 122.602554,239.000534 
	C123.757927,239.089249 124.923958,239.039108 126.546967,239.421295 
	C127.013901,240.460251 127.018898,241.131378 126.662415,241.702240 
	C124.821304,241.448273 123.341660,241.294586 121.862022,241.140900 
	C109.798454,241.775085 97.735367,242.318161 85.796249,239.775757 
	C83.524574,239.292023 81.003403,239.083252 79.119873,237.909286 
	C76.956161,236.560669 73.937775,234.316101 73.888794,232.394485 
	C73.822006,229.774445 75.548706,226.099442 77.699471,224.662857 
	C81.136818,222.366898 85.619286,221.688797 89.524063,220.010635 
	C90.892471,219.422531 91.860329,217.902405 92.979927,216.413300 
z"/>
<path fill="#BF748D" opacity="1.000000" stroke="none" 
	d="
M127.023888,241.802521 
	C127.018898,241.131378 127.013901,240.460251 127.015076,239.456589 
	C151.359512,239.107101 175.697754,239.090134 200.513672,239.460358 
	C200.994858,240.579590 200.998352,241.311661 201.001846,242.043716 
	C177.016571,242.120285 153.031296,242.196838 128.319183,242.130035 
	C127.402847,241.925278 127.213364,241.863892 127.023888,241.802521 
z"/>
<path fill="#C87B96" opacity="1.000000" stroke="none" 
	d="
M201.467438,242.104187 
	C200.998352,241.311661 200.994858,240.579590 200.979584,239.484970 
	C214.165207,238.089600 227.368271,237.121185 240.554581,235.962357 
	C242.821671,235.763107 245.017548,234.753616 247.628967,234.071259 
	C248.327805,234.619186 248.644012,235.214294 249.091614,236.127594 
	C244.394684,237.877365 239.641373,240.120010 234.722702,240.574921 
	C223.836914,241.581711 212.868027,241.689957 201.467438,242.104187 
z"/>
<path fill="#C57892" opacity="1.000000" stroke="none" 
	d="
M45.501682,78.619614 
	C45.121357,82.156372 44.410954,85.842484 43.660847,89.520493 
	C43.101387,92.263695 42.294804,94.971970 41.949051,97.739616 
	C41.443718,101.784615 39.507278,104.017975 34.859192,103.953300 
	C35.436974,102.721153 36.451393,101.499863 38.125008,100.102783 
	C38.908958,98.971329 39.033714,98.015656 39.158466,97.059982 
	C39.258106,95.629539 39.357742,94.199097 39.891678,92.242813 
	C40.484280,90.982246 40.642586,90.247520 40.800892,89.512794 
	C40.782181,89.175278 40.763474,88.837769 41.100403,88.075684 
	C41.595001,87.251335 41.733963,86.851555 41.872929,86.451767 
	C42.966808,83.889671 44.060688,81.327583 45.501682,78.619614 
z"/>
<path fill="#C57892" opacity="1.000000" stroke="none" 
	d="
M228.991974,36.027008 
	C222.275604,36.005711 215.559250,35.984413 208.420044,35.593842 
	C207.998550,34.483212 207.999878,33.741848 208.001221,33.000488 
	C215.060028,33.316250 222.118851,33.632015 229.467697,34.265877 
	C229.502487,35.064987 229.247223,35.545998 228.991974,36.027008 
z"/>
<path fill="#C97C96" opacity="1.000000" stroke="none" 
	d="
M229.235748,36.292931 
	C229.247223,35.545998 229.502487,35.064987 229.867584,34.335106 
	C233.930664,35.362663 237.883881,36.639099 241.947449,38.635902 
	C242.009125,39.926216 241.960449,40.496155 241.911789,41.066097 
	C237.767700,39.563686 233.623627,38.061275 229.235748,36.292931 
z"/>
<path fill="#C97C96" opacity="1.000000" stroke="none" 
	d="
M249.895340,48.147038 
	C248.686417,46.986298 247.477493,45.825558 246.148712,44.062096 
	C246.371063,42.962952 246.713272,42.466541 247.055481,41.970131 
	C248.555801,43.450817 250.056122,44.931499 251.368164,46.745316 
	C250.751709,47.434647 250.323532,47.790844 249.895340,48.147038 
z"/>
<path fill="#C97C96" opacity="1.000000" stroke="none" 
	d="
M207.714355,32.917664 
	C207.999878,33.741848 207.998550,34.483212 207.997879,35.594383 
	C206.698212,35.525024 205.397888,35.085857 204.054626,34.323936 
	C204.656265,33.700676 205.300797,33.400173 206.124939,32.768837 
	C206.678848,32.570282 207.053177,32.702560 207.714355,32.917664 
z"/>
<path fill="#C57A93" opacity="1.000000" stroke="none" 
	d="
M246.879791,41.687454 
	C246.713272,42.466541 246.371063,42.962952 245.992905,43.776711 
	C245.412781,43.894245 244.868607,43.694435 244.117889,42.927956 
	C243.259750,41.929234 242.608139,41.497177 241.956543,41.065117 
	C241.956543,41.065113 241.943405,41.047604 241.927597,41.056850 
	C241.960449,40.496155 242.009125,39.926216 242.101318,38.926243 
	C243.664597,39.465733 245.184341,40.435253 246.879791,41.687454 
z"/>
<path fill="#E3AFC1" opacity="1.000000" stroke="none" 
	d="
M126.662415,241.702240 
	C127.213364,241.863892 127.402847,241.925278 127.858925,242.123291 
	C126.120178,242.113434 124.114845,241.966965 121.985764,241.480698 
	C123.341660,241.294586 124.821304,241.448273 126.662415,241.702240 
z"/>
<path fill="#C57892" opacity="1.000000" stroke="none" 
	d="
M52.148411,72.135208 
	C51.022957,73.140984 49.842236,74.097984 48.294071,75.000565 
	C48.410839,74.053238 48.895050,73.160332 50.002865,72.130173 
	C51.079521,71.990486 51.532570,71.988037 51.985622,71.985580 
	C51.985622,71.985580 52.093143,72.086433 52.148411,72.135208 
z"/>
<path fill="#CB819A" opacity="1.000000" stroke="none" 
	d="
M38.923977,97.284111 
	C39.033714,98.015656 38.908958,98.971329 38.485519,99.992668 
	C38.354389,99.208305 38.521938,98.358269 38.923977,97.284111 
z"/>
<path fill="#C67B95" opacity="1.000000" stroke="none" 
	d="
M51.991302,71.693710 
	C51.532570,71.988037 51.079521,71.990486 50.286385,71.985901 
	C50.436127,71.409309 50.925953,70.839752 51.712425,70.254059 
	C52.005047,70.625900 52.001015,71.013870 51.991302,71.693710 
z"/>
<path fill="#C57A93" opacity="1.000000" stroke="none" 
	d="
M250.097931,48.383526 
	C250.323532,47.790844 250.751709,47.434647 251.465103,47.045082 
	C251.937210,47.435104 252.124115,47.858494 252.188354,48.611214 
	C251.477295,48.833702 250.888901,48.726856 250.097931,48.383526 
z"/>
<path fill="#C67B95" opacity="1.000000" stroke="none" 
	d="
M71.585869,50.731754 
	C71.534660,51.318455 71.221443,52.080811 70.585083,52.920731 
	C70.615921,52.301334 70.969887,51.604370 71.585869,50.731754 
z"/>
<path fill="#C67B95" opacity="1.000000" stroke="none" 
	d="
M67.547653,62.628838 
	C67.343651,63.252621 66.853935,64.056328 65.954681,64.856735 
	C66.117416,64.171883 66.689682,63.490318 67.547653,62.628838 
z"/>
<path fill="#CB819A" opacity="1.000000" stroke="none" 
	d="
M40.554504,89.700729 
	C40.642586,90.247520 40.484280,90.982246 40.079872,91.856186 
	C39.991882,91.293144 40.149998,90.590904 40.554504,89.700729 
z"/>
<path fill="#C57892" opacity="1.000000" stroke="none" 
	d="
M47.708271,74.926254 
	C47.817673,75.544426 47.686684,76.160828 47.249508,76.570953 
	C46.914558,76.121941 46.885796,75.879204 46.857033,75.636467 
	C46.954159,75.307785 47.157772,75.070457 47.708271,74.926254 
z"/>
<path fill="#C67B95" opacity="1.000000" stroke="none" 
	d="
M64.023438,64.830444 
	C63.968956,64.956245 63.786194,64.973465 63.328686,65.004593 
	C63.257080,64.696892 63.537483,64.598015 64.023438,64.830444 
z"/>
<path fill="#C57892" opacity="1.000000" stroke="none" 
	d="
M33.479786,104.127319 
	C33.096767,103.936729 33.070507,103.673027 33.044785,103.008522 
	C33.519459,102.785973 33.993599,102.964218 34.511211,103.537613 
	C34.315308,103.973244 34.075928,104.013725 33.479786,104.127319 
z"/>
<path fill="#C97C96" opacity="1.000000" stroke="none" 
	d="
M262.754791,64.924774 
	C262.818115,65.056648 262.382904,65.016266 262.164795,64.997429 
	C262.147064,64.689400 262.395355,64.627495 262.754791,64.924774 
z"/>
<path fill="#C67B95" opacity="1.000000" stroke="none" 
	d="
M41.611076,86.640518 
	C41.733963,86.851555 41.595001,87.251335 41.193100,87.836975 
	C41.069847,87.624969 41.209534,87.227112 41.611076,86.640518 
z"/>
<path fill="#C67B95" opacity="1.000000" stroke="none" 
	d="
M46.596573,75.834892 
	C46.885796,75.879204 46.914558,76.121941 46.964272,76.731857 
	C46.789173,77.109550 46.593128,77.120079 46.105110,77.179321 
	C45.987469,76.829803 46.161793,76.431557 46.596573,75.834892 
z"/>
<path fill="#CE8AB7" opacity="1.000000" stroke="none" 
	d="
M133.913544,88.915520 
	C135.802536,87.952492 137.611801,86.439697 139.598648,86.151588 
	C142.808517,85.686134 146.135239,86.026428 151.062469,86.026428 
	C149.502747,81.859390 148.795792,78.521095 147.127029,75.765175 
	C140.191452,64.311157 147.340500,49.015785 160.597794,47.364254 
	C170.518463,46.128384 180.393127,54.541851 179.824753,64.565163 
	C179.488831,70.488968 177.752151,76.371468 176.280579,82.180122 
	C175.193375,86.471596 175.934525,87.622292 180.282028,86.751526 
	C184.010590,86.004730 187.753143,84.707108 190.895325,88.643234 
	C190.908386,89.096138 190.729752,89.280006 190.286316,89.217636 
	C185.543991,89.093399 181.217361,89.283913 176.963104,88.816170 
	C175.683563,88.675491 173.526474,86.600204 173.623016,85.587730 
	C174.026611,81.355255 175.134415,77.189926 176.151031,72.711258 
	C176.854736,71.253609 177.391525,70.084694 178.219269,68.669891 
	C177.446548,64.211166 177.180603,59.552387 175.133011,55.889576 
	C172.027542,50.334324 163.874084,48.311359 157.376984,50.335224 
	C151.347916,52.213291 147.093155,57.894310 147.103256,64.429245 
	C148.586960,68.909866 150.097977,72.977638 151.688461,77.424606 
	C151.860504,78.573029 151.953079,79.342262 151.951904,80.425888 
	C152.195343,81.733154 152.532516,82.726028 152.570648,83.942429 
	C152.094086,85.367889 151.916534,86.569817 151.307922,87.846130 
	C145.335510,88.365990 139.794174,88.811462 134.168213,89.171371 
	C134.083603,89.085815 133.913544,88.915520 133.913544,88.915520 
z"/>
<path fill="#CE8AB7" opacity="1.000000" stroke="none" 
	d="
M127.660492,168.212555 
	C130.447617,168.907898 133.411743,169.210754 135.988510,170.372650 
	C143.534744,173.775314 148.434616,170.714905 150.139679,162.800293 
	C153.844208,145.604431 152.943192,128.262482 153.001175,110.928696 
	C153.021729,104.784462 152.219803,104.070412 146.155807,103.948441 
	C144.023483,103.905556 141.844193,103.805809 139.777328,103.333725 
	C132.633453,101.702072 130.093491,96.126961 133.542664,89.036072 
	C133.913544,88.915520 134.083603,89.085815 134.081863,89.524628 
	C134.292664,92.473251 134.505219,94.983070 134.826630,97.810120 
	C137.440216,103.226898 142.211548,101.708694 146.283890,101.852264 
	C153.818405,102.117889 153.788605,101.999863 154.223007,109.266304 
	C154.297684,110.515396 154.800629,111.738884 155.072113,113.418472 
	C155.289078,123.711967 155.539688,133.561203 155.757599,143.404236 
	C155.724930,143.398056 155.670959,143.436951 155.334427,143.657318 
	C154.264023,149.604538 153.530151,155.331406 152.749329,161.174744 
	C152.702362,161.291214 152.802689,161.521469 152.553070,161.767151 
	C152.183487,162.686752 152.063507,163.360672 151.837524,164.291382 
	C150.521301,167.342941 149.311066,170.137695 147.764160,172.904022 
	C146.599991,173.154434 145.772446,173.433289 144.526306,173.706482 
	C142.712082,173.695053 141.316437,173.689301 139.721848,173.643829 
	C139.522888,173.604095 139.118332,173.635330 138.784424,173.505753 
	C134.853836,171.654953 131.257172,169.933746 127.660492,168.212555 
z"/>
<path fill="#41498C" opacity="1.000000" stroke="none" 
	d="
M105.885948,136.173157 
	C106.329353,136.728058 106.772766,137.282944 107.477242,138.307190 
	C108.103355,139.226059 108.468399,139.675568 108.833443,140.125061 
	C108.833443,140.125061 108.990135,139.993713 108.940086,140.352829 
	C109.261597,141.142654 109.633156,141.573349 110.004715,142.004059 
	C110.430321,142.606186 110.855919,143.208313 111.605118,144.217316 
	C112.209305,144.818390 112.489891,145.012589 112.770485,145.206787 
	C112.770485,145.206787 112.779427,145.252365 112.845085,145.585510 
	C114.632820,147.563400 116.354897,149.208160 118.076981,150.852905 
	C118.076981,150.852905 118.071815,150.932053 118.207016,151.199921 
	C118.845169,151.712036 119.348122,151.956284 119.851074,152.200531 
	C119.851074,152.200531 120.008774,152.132538 120.030441,152.382858 
	C120.349152,152.788483 120.646187,152.943802 120.943230,153.099106 
	C121.071892,153.399277 121.268509,153.645081 121.887817,154.214569 
	C123.109352,155.162994 123.976151,155.733383 125.005737,156.579208 
	C124.322395,157.790970 123.445168,158.701431 122.638573,159.670639 
	C121.772293,160.711548 120.972359,161.807678 119.791412,162.937820 
	C118.965393,162.986908 118.491432,162.977890 117.879471,162.630524 
	C118.180901,160.254868 118.620331,158.217545 118.858681,157.112488 
	C114.310822,152.247742 109.653351,147.265762 105.014496,142.303680 
	C103.506187,148.995407 101.478973,156.219543 104.605515,164.169235 
	C106.355431,162.963455 107.656387,162.067017 109.306282,160.930145 
	C110.578430,162.372253 111.745461,163.695190 112.924850,165.401398 
	C113.265564,166.839401 113.375015,168.038239 113.958717,168.924866 
	C117.138817,173.755341 120.435715,178.508926 123.361145,183.317047 
	C122.402473,183.133057 121.775093,182.921005 121.147705,182.708939 
	C120.358696,181.868500 119.569695,181.028061 118.448929,179.690689 
	C116.453506,177.088913 114.789848,174.984055 113.126198,172.879211 
	C113.126198,172.879211 113.140945,172.977417 113.099655,172.571960 
	C111.792992,169.516769 110.527611,166.867035 109.165024,164.013733 
	C107.001495,165.568634 105.112419,166.926285 102.507881,168.798126 
	C100.294083,156.846542 99.592896,146.169678 105.885948,136.173157 
z"/>
<path fill="#414C93" opacity="1.000000" stroke="none" 
	d="
M184.972168,101.926620 
	C183.596115,101.962852 182.220078,101.999084 180.006012,102.014160 
	C171.422974,101.874054 171.064087,102.011497 170.957611,109.423843 
	C170.783310,121.557243 170.513748,133.712555 171.064377,145.823166 
	C171.335449,151.785019 173.353348,157.667480 174.580780,163.585861 
	C174.589432,163.923538 174.598083,164.261230 174.706635,165.217377 
	C177.250366,173.628510 178.695557,174.585526 186.403000,173.139236 
	C188.641098,172.719269 190.809708,171.929031 193.164505,171.487671 
	C193.556122,171.882980 193.828094,172.038528 194.013351,172.484283 
	C188.898926,176.410767 183.299484,175.456970 177.861969,174.656525 
	C176.546829,174.462921 174.894882,172.718109 174.421402,171.335968 
	C172.712769,166.348251 170.997314,161.284210 170.141678,156.107315 
	C169.432114,151.814331 170.159988,147.304214 169.825241,142.922836 
	C169.518143,138.903488 168.114197,134.926559 168.122406,130.932846 
	C168.141510,121.644684 168.720459,112.357674 169.321411,102.885376 
	C170.416138,101.803055 171.261948,100.905540 172.511841,100.066635 
	C177.032211,100.453613 181.148483,100.781990 185.181946,101.310959 
	C185.099121,101.511559 184.972168,101.926620 184.972168,101.926620 
z"/>
<path fill="#3A4891" opacity="1.000000" stroke="none" 
	d="
M201.870132,184.939819 
	C201.568558,184.991119 201.313934,185.129089 200.672974,185.606827 
	C199.460281,186.542084 198.680923,187.224213 197.901550,187.906342 
	C197.901566,187.906357 198.013550,187.934357 197.630417,187.950439 
	C195.800217,188.947495 194.353134,189.928452 192.906052,190.909409 
	C192.906052,190.909409 193.009552,190.921692 192.607697,190.950607 
	C189.120834,192.584152 186.035812,194.188797 182.950806,195.793427 
	C182.492813,195.849442 182.034805,195.905441 181.257996,195.629471 
	C180.939194,195.297501 180.921860,194.853836 181.110443,194.571472 
	C182.358337,193.535019 183.320587,192.544769 184.491974,192.063461 
	C195.939468,187.359695 205.230515,180.139359 211.259857,169.158844 
	C212.858551,166.247314 214.063309,163.119492 215.562546,159.842682 
	C217.870056,161.510864 219.486267,162.679291 222.041656,164.526688 
	C222.041656,159.929489 222.448914,156.435135 221.937531,153.080811 
	C221.312607,148.981750 219.917038,145.000198 218.579651,140.959259 
	C218.122269,140.930069 217.939957,140.909439 217.928589,140.584259 
	C219.630875,140.347763 221.162247,140.415802 222.693604,140.483841 
	C222.693604,140.483841 222.647995,140.789154 222.722733,141.354080 
	C224.346970,150.601807 225.242172,159.264801 222.737244,168.621689 
	C220.118790,166.665115 218.358292,165.349625 217.477768,164.691666 
	C212.077652,171.697357 206.973892,178.318588 201.870132,184.939819 
z"/>
<path fill="#CE8AB7" opacity="1.000000" stroke="none" 
	d="
M202.245148,184.964920 
	C206.973892,178.318588 212.077652,171.697357 217.477768,164.691666 
	C218.358292,165.349625 220.118790,166.665115 222.737244,168.621689 
	C225.242172,159.264801 224.346970,150.601807 222.797089,141.489349 
	C223.853714,143.384918 225.613068,145.648407 225.824036,148.048035 
	C226.288071,153.326462 226.089279,158.677094 225.936661,163.991821 
	C225.789749,169.107788 224.151169,170.145218 219.035248,169.623215 
	C217.756561,169.492767 215.845718,170.565048 215.037552,171.675552 
	C211.428879,176.634262 209.307053,182.907166 202.245148,184.964920 
z"/>
<path fill="#38488F" opacity="1.000000" stroke="none" 
	d="
M180.921860,194.853836 
	C180.921860,194.853836 180.939194,195.297501 180.930634,195.517548 
	C180.938171,195.912354 180.954285,196.087097 180.577835,196.562851 
	C177.771286,198.181717 175.357300,199.499573 172.943314,200.817413 
	C172.396790,201.002411 171.850250,201.187393 170.758804,201.635193 
	C168.019196,203.507828 165.824509,205.117661 163.629822,206.727493 
	C163.079453,206.715179 162.529099,206.702850 161.554077,206.473007 
	C160.797318,206.106964 160.465225,205.958435 160.133133,205.809921 
	C160.133133,205.809921 160.066086,205.946625 160.030685,205.648346 
	C159.694717,205.186966 159.394165,205.023849 159.093597,204.860733 
	C159.093597,204.860733 159.064102,205.002075 158.944580,204.631195 
	C153.551483,201.507050 148.277878,198.753784 143.004288,196.000504 
	C142.734238,195.802567 142.435516,195.668457 141.744843,195.360718 
	C141.229309,194.809845 141.077087,194.496414 140.956924,193.877228 
	C141.009918,193.367935 141.030853,193.164413 141.426270,192.973877 
	C147.667130,195.641342 153.691254,198.006058 159.331238,201.076401 
	C162.024796,202.542740 163.917328,202.701843 166.588486,201.326950 
	C171.243591,198.930893 176.131516,196.987167 180.921860,194.853836 
z"/>
<path fill="#CE8AB7" opacity="1.000000" stroke="none" 
	d="
M174.703735,163.103882 
	C173.353348,157.667480 171.335449,151.785019 171.064377,145.823166 
	C170.513748,133.712555 170.783310,121.557243 170.957611,109.423843 
	C171.064087,102.011497 171.422974,101.874054 179.602997,102.107674 
	C179.357224,102.805573 178.768555,103.651466 177.980209,103.927887 
	C173.936081,105.345886 171.772568,107.894318 171.964554,112.386200 
	C172.596588,127.172653 170.211212,142.139542 174.826431,156.698318 
	C175.395233,158.492569 174.853714,160.638779 174.703735,163.103882 
z"/>
<path fill="#CE8AB7" opacity="1.000000" stroke="none" 
	d="
M105.879013,135.836914 
	C99.592896,146.169678 100.294083,156.846542 102.507881,168.798126 
	C105.112419,166.926285 107.001495,165.568634 109.165024,164.013733 
	C110.527611,166.867035 111.792992,169.516769 113.105072,172.521332 
	C112.184349,172.382462 111.248512,171.808456 110.242531,171.412796 
	C108.487991,170.722717 106.529343,169.357254 104.944588,169.682007 
	C101.785583,170.329346 100.698944,169.069733 100.072678,166.423660 
	C97.688683,156.350891 99.699547,146.594467 102.356911,136.935150 
	C102.561638,136.190964 104.656006,135.966629 105.879013,135.836914 
z"/>
<path fill="#3D458E" opacity="1.000000" stroke="none" 
	d="
M194.134720,172.133484 
	C193.828094,172.038528 193.556122,171.882980 193.471237,171.321732 
	C195.097473,169.999374 196.571304,169.022079 198.045120,168.044785 
	C198.045120,168.044785 197.997391,168.007004 198.359665,167.987457 
	C201.204788,165.786423 203.687637,163.604919 207.039261,160.660095 
	C203.763733,159.870499 201.906097,159.422699 200.048477,158.974899 
	C199.993454,158.527863 199.938431,158.080826 200.210876,157.184982 
	C201.636292,156.055038 202.734222,155.373901 203.981964,154.971008 
	C204.675842,155.498779 205.219940,155.748291 205.979965,156.262589 
	C206.832840,157.976425 208.410660,159.912155 207.953781,160.795425 
	C205.018936,166.469284 200.915222,171.015289 194.134720,172.133484 
z"/>
<path fill="#CE8AB7" opacity="1.000000" stroke="none" 
	d="
M197.634766,168.026031 
	C196.571304,169.022079 195.097473,169.999374 193.316910,171.142593 
	C190.809708,171.929031 188.641098,172.719269 186.403000,173.139236 
	C178.695557,174.585526 177.250366,173.628510 174.800629,165.455170 
	C176.266815,166.656204 177.516891,168.579468 179.274506,169.721924 
	C180.975052,170.827286 183.343353,171.943008 185.162033,171.618332 
	C189.266876,170.885498 193.213455,169.266037 197.634766,168.026031 
z"/>
<path fill="#CE8AB7" opacity="1.000000" stroke="none" 
	d="
M120.143478,162.879715 
	C120.972359,161.807678 121.772293,160.711548 122.638573,159.670639 
	C123.445168,158.701431 124.322395,157.790970 125.050140,156.270233 
	C124.946335,155.478806 124.960930,155.271790 124.975540,155.064758 
	C125.783516,156.660568 126.591492,158.256393 127.399475,159.852219 
	C124.292862,161.419098 126.089729,164.050659 125.702400,166.635712 
	C125.018578,166.905411 124.637558,166.813095 124.082245,166.492004 
	C123.404442,166.075150 122.900932,165.887054 122.351517,165.696045 
	C122.305611,165.693130 122.268906,165.777481 122.310150,165.467133 
	C121.921204,164.751862 121.491013,164.346939 121.028137,163.963440 
	C120.995438,163.984863 121.066620,163.957077 121.030258,163.679581 
	C120.677574,163.245758 120.361244,163.089432 120.076813,162.933167 
	C120.108719,162.933228 120.143478,162.879715 120.143478,162.879715 
z"/>
<path fill="#CE8AB7" opacity="1.000000" stroke="none" 
	d="
M121.127998,183.077682 
	C121.775093,182.921005 122.402473,183.133057 123.384201,183.320892 
	C123.738548,183.296677 123.784126,183.308960 123.755615,183.615768 
	C124.362396,184.423370 124.997688,184.924164 125.807755,185.705032 
	C126.939423,186.381744 127.896309,186.778397 128.890137,187.166534 
	C128.927094,187.158020 128.920441,187.082474 128.951172,187.404480 
	C129.367813,187.888199 129.753693,188.049911 130.225418,188.248230 
	C130.311264,188.284836 130.447266,188.157013 130.614410,188.431641 
	C131.171127,188.839569 131.560669,188.972855 131.905746,189.104706 
	C131.861267,189.103287 131.818695,189.181458 131.979828,189.476654 
	C134.185226,191.066208 136.229477,192.360550 138.187103,193.762161 
	C138.100494,193.869431 137.925415,194.082489 137.925415,194.082489 
	C131.346848,192.075363 124.813484,189.996765 121.127998,183.077682 
z"/>
<path fill="#CE8AB7" opacity="1.000000" stroke="none" 
	d="
M222.797974,140.101532 
	C221.162247,140.415802 219.630875,140.347763 217.648621,140.734650 
	C215.698868,142.680954 214.199997,144.172302 212.525116,145.497040 
	C212.349121,145.330444 211.997101,144.997223 211.997101,144.997223 
	C213.881622,142.016785 215.555313,138.862869 217.778488,136.161102 
	C218.449890,135.345200 220.904083,135.263168 222.050415,135.833069 
	C222.794479,136.202988 222.649170,138.361877 222.797974,140.101532 
z"/>
<path fill="#CE8AB7" opacity="1.000000" stroke="none" 
	d="
M203.832153,154.692780 
	C202.734222,155.373901 201.636292,156.055038 200.232849,156.846008 
	C200.088486,156.020599 199.911484,154.706070 200.465836,154.211838 
	C203.991089,151.068802 207.677734,148.106735 211.654175,145.041138 
	C211.997101,144.997223 212.349121,145.330444 212.377319,145.765121 
	C212.246292,146.780899 212.087051,147.361984 211.946991,147.974182 
	C211.966171,148.005264 211.943558,147.940262 211.612381,148.007690 
	C208.798187,150.281021 206.315186,152.486893 203.832153,154.692780 
z"/>
<path fill="#CE8AB7" opacity="1.000000" stroke="none" 
	d="
M185.193451,102.208191 
	C184.972168,101.926620 185.099121,101.511559 185.327423,101.327560 
	C185.555725,101.143562 185.831039,101.032288 186.205170,101.060837 
	C187.416229,100.077484 188.253143,99.065582 189.078247,98.081017 
	C189.066437,98.108360 189.108017,98.151039 189.422867,98.008514 
	C190.068390,95.003998 190.399078,92.142006 190.729752,89.280006 
	C190.729752,89.280006 190.908386,89.096138 190.999039,89.003983 
	C194.800385,91.705246 193.340210,95.609879 192.263214,98.607552 
	C191.421951,100.949043 189.288513,104.044960 185.193451,102.208191 
z"/>
<path fill="#CE8AB7" opacity="1.000000" stroke="none" 
	d="
M143.050415,196.344757 
	C148.277878,198.753784 153.551483,201.507050 158.974609,204.565430 
	C153.781601,202.143372 148.439072,199.416183 143.050415,196.344757 
z"/>
<path fill="#CE8AB7" opacity="1.000000" stroke="none" 
	d="
M200.036514,159.341827 
	C201.906097,159.422699 203.763733,159.870499 207.039261,160.660095 
	C203.687637,163.604919 201.204788,165.786423 198.382019,168.010315 
	C198.702911,165.271378 199.363724,162.490067 200.036514,159.341827 
z"/>
<path fill="#41498C" opacity="1.000000" stroke="none" 
	d="
M124.256538,166.720779 
	C124.637558,166.813095 125.018578,166.905411 125.692589,167.025085 
	C126.375656,167.389297 126.765724,167.726151 127.408142,168.137787 
	C131.257172,169.933746 134.853836,171.654953 138.761917,173.813202 
	C139.078827,174.453964 139.084351,174.657669 138.691254,174.893829 
	C134.205795,173.590103 130.118942,172.253922 125.884033,170.636047 
	C125.125183,169.269150 124.514404,168.183929 123.992004,167.004364 
	C124.080391,166.910034 124.256538,166.720779 124.256538,166.720779 
z"/>
<path fill="#D07392" opacity="1.000000" stroke="none" 
	d="
M95.389236,221.006378 
	C95.322784,219.584564 95.656563,218.161697 95.993484,216.369110 
	C96.316780,215.900940 96.576073,215.716812 96.880424,215.230042 
	C98.298973,216.122070 99.611618,217.231094 100.924255,218.340134 
	C99.212662,219.228531 97.501060,220.116928 95.389236,221.006378 
z"/>
<path fill="#CE8AB7" opacity="1.000000" stroke="none" 
	d="
M183.136246,196.078476 
	C186.035812,194.188797 189.120834,192.584152 192.558777,190.931137 
	C191.207687,195.321442 187.306915,195.916382 183.136246,196.078476 
z"/>
<path fill="#CE8AB7" opacity="1.000000" stroke="none" 
	d="
M113.080444,173.278931 
	C114.789848,174.984055 116.453506,177.088913 118.211578,179.525558 
	C114.284409,179.729721 112.980850,177.283218 113.080444,173.278931 
z"/>
<path fill="#CE8AB7" opacity="1.000000" stroke="none" 
	d="
M164.021393,206.804291 
	C165.824509,205.117661 168.019196,203.507828 170.558960,201.847778 
	C168.740341,203.492081 166.576645,205.186569 164.021393,206.804291 
z"/>
<path fill="#CE8AB7" opacity="1.000000" stroke="none" 
	d="
M173.120178,201.094666 
	C175.357300,199.499573 177.771286,198.181717 180.545593,196.824097 
	C178.369614,198.313522 175.833313,199.842712 173.120178,201.094666 
z"/>
<path fill="#C185B8" opacity="1.000000" stroke="none" 
	d="
M118.056107,150.498077 
	C116.354897,149.208160 114.632820,147.563400 112.833206,145.605469 
	C114.515518,146.909256 116.275375,148.526245 118.056107,150.498077 
z"/>
<path fill="#CE8AB7" opacity="1.000000" stroke="none" 
	d="
M193.296677,190.945770 
	C194.353134,189.928452 195.800217,188.947495 197.578506,187.924072 
	C196.502258,188.915115 195.094788,189.948639 193.296677,190.945770 
z"/>
<path fill="#CE8AB7" opacity="1.000000" stroke="none" 
	d="
M140.924866,194.182983 
	C141.077087,194.496414 141.229309,194.809845 141.497711,195.356659 
	C140.461075,195.330292 139.308243,195.070541 138.040405,194.446640 
	C137.925415,194.082489 138.100494,193.869431 138.517822,193.826965 
	C139.598389,193.917328 140.261627,194.050156 140.924866,194.182983 
z"/>
<path fill="#CE8AB7" opacity="1.000000" stroke="none" 
	d="
M198.279053,187.939697 
	C198.680923,187.224213 199.460281,186.542084 200.551788,185.790863 
	C200.128143,186.472198 199.392334,187.222626 198.279053,187.939697 
z"/>
<path fill="#C185B8" opacity="1.000000" stroke="none" 
	d="
M124.774956,154.792664 
	C124.960930,155.271790 124.946335,155.478806 124.887344,155.994781 
	C123.976151,155.733383 123.109352,155.162994 122.106857,154.308411 
	C122.838898,154.189667 123.706635,154.355118 124.774956,154.792664 
z"/>
<path fill="#C97C96" opacity="1.000000" stroke="none" 
	d="
M242.011353,41.376236 
	C242.608139,41.497177 243.259750,41.929234 243.951080,42.684807 
	C243.349243,42.568001 242.707718,42.127674 242.011353,41.376236 
z"/>
<path fill="#C97C96" opacity="1.000000" stroke="none" 
	d="
M256.974182,66.370514 
	C257.564484,66.448753 258.229553,66.834389 258.950195,67.524902 
	C258.353485,67.445816 257.701233,67.061859 256.974182,66.370514 
z"/>
<path fill="#C185B8" opacity="1.000000" stroke="none" 
	d="
M108.862808,139.792847 
	C108.468399,139.675568 108.103355,139.226059 107.680725,138.479950 
	C108.046150,138.609100 108.469162,139.034866 108.862808,139.792847 
z"/>
<path fill="#C185B8" opacity="1.000000" stroke="none" 
	d="
M119.764999,151.920456 
	C119.348122,151.956284 118.845169,151.712036 118.246361,151.194931 
	C118.659981,151.161514 119.169456,151.400940 119.764999,151.920456 
z"/>
<path fill="#C185B8" opacity="1.000000" stroke="none" 
	d="
M109.995758,141.695374 
	C109.633156,141.573349 109.261597,141.142654 108.858444,140.415436 
	C109.213501,140.541519 109.600143,140.964111 109.995758,141.695374 
z"/>
<path fill="#C185B8" opacity="1.000000" stroke="none" 
	d="
M112.726578,144.929626 
	C112.489891,145.012589 112.209305,144.818390 111.834961,144.376678 
	C112.055038,144.303604 112.368858,144.478043 112.726578,144.929626 
z"/>
<path fill="#CE8AB7" opacity="1.000000" stroke="none" 
	d="
M160.237442,206.089600 
	C160.465225,205.958435 160.797318,206.106964 161.278931,206.490753 
	C161.066208,206.607101 160.703979,206.488190 160.237442,206.089600 
z"/>
<path fill="#CE8AB7" opacity="1.000000" stroke="none" 
	d="
M159.170319,205.120911 
	C159.394165,205.023849 159.694717,205.186966 160.087952,205.598175 
	C159.869415,205.691193 159.558228,205.536133 159.170319,205.120911 
z"/>
<path fill="#C185B8" opacity="1.000000" stroke="none" 
	d="
M120.855545,152.848480 
	C120.646187,152.943802 120.349152,152.788483 119.946228,152.399368 
	C120.149513,152.309662 120.458679,152.453766 120.855545,152.848480 
z"/>
<path fill="#1860B8" opacity="1.000000" stroke="none" 
	d="
M151.608994,77.045410 
	C150.097977,72.977638 148.586960,68.909866 147.403687,64.259903 
	C148.463760,62.620213 149.450241,61.657181 149.884552,60.488880 
	C151.789291,55.365219 156.100586,52.512398 161.185440,51.855019 
	C171.108856,50.572098 176.881653,59.246326 177.928314,68.915779 
	C177.391525,70.084694 176.854736,71.253609 175.826096,72.758118 
	C174.263702,74.412300 173.193176,75.730896 171.764084,77.162521 
	C166.369781,79.816559 161.342316,81.625023 155.884979,78.198158 
	C154.689682,77.447594 153.046112,77.410873 151.608994,77.045410 
M167.983246,62.017521 
	C167.983246,62.017521 167.957901,62.088806 167.796799,61.581711 
	C167.504532,61.398701 167.212265,61.215687 166.995300,61.033367 
	C166.995300,61.033367 166.946533,61.090752 166.914368,60.311100 
	C165.306976,56.660465 161.755798,57.310799 159.772720,58.537106 
	C157.604187,59.878075 155.423325,62.956097 155.315811,65.369171 
	C155.212357,67.691261 157.215088,71.088753 159.282166,72.246315 
	C161.296829,73.374527 165.343460,75.372017 167.283981,69.994507 
	C167.824554,67.724724 168.365128,65.454948 168.766174,62.658661 
	C168.480576,62.450428 168.194992,62.242195 167.983246,62.017521 
z"/>
<path fill="#175FB8" opacity="1.000000" stroke="none" 
	d="
M152.869690,83.718903 
	C152.532516,82.726028 152.195343,81.733154 152.354233,80.392166 
	C159.219223,82.545746 165.589340,82.695312 171.972382,80.468018 
	C171.648087,83.232254 171.312302,85.582268 170.511566,87.949593 
	C164.695114,87.939812 159.343597,87.912712 153.943726,87.530548 
	C153.553452,86.023285 153.211578,84.871094 152.869690,83.718903 
z"/>
<path fill="#3B498F" opacity="1.000000" stroke="none" 
	d="
M178.219269,68.669891 
	C176.881653,59.246326 171.108856,50.572098 161.185440,51.855019 
	C156.100586,52.512398 151.789291,55.365219 149.884552,60.488880 
	C149.450241,61.657181 148.463760,62.620213 147.431000,63.847054 
	C147.093155,57.894310 151.347916,52.213291 157.376984,50.335224 
	C163.874084,48.311359 172.027542,50.334324 175.133011,55.889576 
	C177.180603,59.552387 177.446548,64.211166 178.219269,68.669891 
z"/>
<path fill="#374288" opacity="1.000000" stroke="none" 
	d="
M170.976517,87.932281 
	C171.312302,85.582268 171.648087,83.232254 171.996429,80.091141 
	C172.046890,78.549850 172.084763,77.799667 172.122650,77.049484 
	C173.193176,75.730896 174.263702,74.412300 175.659180,73.046852 
	C175.134415,77.189926 174.026611,81.355255 173.623016,85.587730 
	C173.526474,86.600204 175.683563,88.675491 176.963104,88.816170 
	C181.217361,89.283913 185.543991,89.093399 190.286316,89.217636 
	C190.399078,92.142006 190.068390,95.003998 189.376175,97.565735 
	C188.323868,95.018616 191.013412,91.154961 185.819153,90.730499 
	C184.744415,90.623856 183.855560,90.759895 182.542725,90.905548 
	C180.421829,90.923416 178.724915,90.931679 176.930878,90.780113 
	C176.549271,90.723091 176.264786,90.825897 175.571899,90.934372 
	C173.802383,90.930931 172.441269,90.921822 171.062561,90.542046 
	C171.022141,89.425011 170.999329,88.678650 170.976517,87.932281 
z"/>
<path fill="#4B4C94" opacity="1.000000" stroke="none" 
	d="
M134.717773,97.492889 
	C134.505219,94.983070 134.292664,92.473251 134.166473,89.610184 
	C139.794174,88.811462 145.335510,88.365990 151.403107,87.930115 
	C151.929352,87.939713 152.112915,88.112343 152.065872,88.457420 
	C151.974442,89.498894 151.930038,90.195297 151.435883,90.904755 
	C147.670700,90.935005 144.355301,90.952187 140.883698,90.742371 
	C140.129333,90.673141 139.531158,90.830910 138.543182,90.996773 
	C137.386276,92.674278 136.619186,94.343689 135.604279,96.207443 
	C135.143555,96.765495 134.930664,97.129196 134.717773,97.492889 
z"/>
<path fill="#073D9A" opacity="1.000000" stroke="none" 
	d="
M171.764069,77.162521 
	C172.084763,77.799667 172.046890,78.549850 171.984955,79.676910 
	C165.589340,82.695312 159.219223,82.545746 152.447968,80.077774 
	C151.953079,79.342262 151.860504,78.573029 151.688461,77.424599 
	C153.046112,77.410873 154.689682,77.447594 155.884979,78.198158 
	C161.342316,81.625023 166.369781,79.816559 171.764069,77.162521 
z"/>
<path fill="#4B4C94" opacity="1.000000" stroke="none" 
	d="
M152.570663,83.942429 
	C153.211578,84.871094 153.553452,86.023285 153.629333,87.563690 
	C152.946518,88.005386 152.529724,88.058861 152.112915,88.112343 
	C152.112915,88.112343 151.929352,87.939713 151.834167,87.855728 
	C151.916534,86.569817 152.094086,85.367889 152.570663,83.942429 
z"/>
<path fill="#1663BD" opacity="1.000000" stroke="none" 
	d="
M126.032089,170.917740 
	C130.118942,172.253922 134.205795,173.590103 138.882202,174.937225 
	C139.471756,174.948166 139.864807,174.934616 140.121948,175.195709 
	C141.952713,175.282928 143.526321,175.109039 145.410248,174.954803 
	C146.134750,174.944061 146.548965,174.913651 147.201828,174.823975 
	C147.742493,174.584778 147.925186,174.321899 148.021027,173.715637 
	C148.069275,173.280960 148.085052,173.106705 148.100815,172.932465 
	C149.311066,170.137695 150.521301,167.342941 152.137894,164.087921 
	C152.630402,162.925598 152.716553,162.223541 152.802704,161.521469 
	C152.802689,161.521469 152.702362,161.291214 153.151428,161.097809 
	C154.290634,155.081924 154.980789,149.259430 155.670959,143.436951 
	C155.670959,143.436951 155.724930,143.398056 156.052032,143.095032 
	C159.117203,132.457642 158.616180,122.154472 156.079865,111.436417 
	C156.054794,108.401558 156.031052,105.801178 156.465942,103.125122 
	C160.973877,103.056366 165.023193,103.063278 169.072510,103.070190 
	C168.720459,112.357674 168.141510,121.644684 168.122406,130.932846 
	C168.114197,134.926559 169.518143,138.903488 169.825241,142.922836 
	C170.159988,147.304214 169.432114,151.814331 170.141678,156.107315 
	C170.997314,161.284210 172.712769,166.348251 174.421402,171.335968 
	C174.894882,172.718109 176.546829,174.462921 177.861969,174.656525 
	C183.299484,175.456970 188.898926,176.410767 194.013351,172.484283 
	C200.915222,171.015289 205.018936,166.469284 207.953781,160.795425 
	C208.410660,159.912155 206.832840,157.976425 206.192001,155.979584 
	C208.106583,152.934616 210.025070,150.437439 211.943542,147.940262 
	C211.943558,147.940262 211.966171,148.005264 212.299347,147.990234 
	C214.706604,145.639404 216.780670,143.303619 218.854736,140.967819 
	C219.917038,145.000198 221.312607,148.981750 221.937531,153.080811 
	C222.448914,156.435135 222.041656,159.929489 222.041656,164.526688 
	C219.486267,162.679291 217.870056,161.510864 215.562546,159.842682 
	C214.063309,163.119492 212.858551,166.247314 211.259857,169.158844 
	C205.230515,180.139359 195.939468,187.359695 184.491974,192.063461 
	C183.320587,192.544769 182.358337,193.535019 181.110443,194.571472 
	C176.131516,196.987167 171.243591,198.930893 166.588486,201.326950 
	C163.917328,202.701843 162.024796,202.542740 159.331238,201.076401 
	C153.691254,198.006058 147.667130,195.641342 141.412567,192.984955 
	C141.024399,192.983063 141.032532,192.969925 141.010284,192.683502 
	C140.650909,191.992508 140.313797,191.587952 139.625427,191.115326 
	C137.520554,190.344391 135.766968,189.641525 133.964813,188.590668 
	C131.946671,187.160431 129.977081,186.078186 128.003616,184.997620 
	C127.999741,184.999313 128.003708,184.991577 127.958382,184.667328 
	C127.250931,183.909058 126.588814,183.475037 125.564804,183.040649 
	C124.729980,183.129837 124.257057,183.219406 123.784126,183.308960 
	C123.784126,183.308960 123.738548,183.296677 123.715492,183.292816 
	C120.435715,178.508926 117.138817,173.755341 113.958717,168.924866 
	C113.375015,168.038239 113.265564,166.839401 113.292236,165.392365 
	C115.104004,164.322998 116.560738,163.645935 118.017471,162.968872 
	C118.491432,162.977890 118.965393,162.986908 119.791412,162.937820 
	C120.143478,162.879715 120.108719,162.933228 120.142395,163.191193 
	C120.472923,163.618469 120.769768,163.787781 121.066620,163.957092 
	C121.066620,163.957077 120.995438,163.984863 121.008545,164.283432 
	C121.437408,164.980499 121.853157,165.378983 122.268906,165.777481 
	C122.268906,165.777481 122.305611,165.693130 122.213074,166.010712 
	C122.084709,166.551926 122.048882,166.775558 122.011703,167.357422 
	C123.299507,172.744278 123.466301,172.877075 126.032089,170.917740 
z"/>
<path fill="#4E4F90" opacity="1.000000" stroke="none" 
	d="
M156.007309,103.200798 
	C156.031052,105.801178 156.054794,108.401558 155.977234,111.672722 
	C155.619202,112.553734 155.362473,112.763962 155.105743,112.974197 
	C154.800629,111.738884 154.297684,110.515396 154.223007,109.266304 
	C153.788605,101.999863 153.818405,102.117889 146.283890,101.852264 
	C142.211548,101.708694 137.440216,103.226898 134.826630,97.810120 
	C134.930664,97.129196 135.143555,96.765495 135.803284,96.517220 
	C138.794327,97.755775 141.251358,99.471336 143.903442,99.861710 
	C147.777283,100.431923 151.791168,100.050644 155.787918,100.462082 
	C155.889420,101.633080 155.948364,102.416939 156.007309,103.200798 
z"/>
<path fill="#1B3780" opacity="1.000000" stroke="none" 
	d="
M155.072113,113.418465 
	C155.362473,112.763962 155.619202,112.553734 155.978561,112.107208 
	C158.616180,122.154472 159.117203,132.457642 156.084717,143.101227 
	C155.539688,133.561203 155.289078,123.711967 155.072113,113.418465 
z"/>
<path fill="#4E4F90" opacity="1.000000" stroke="none" 
	d="
M155.334412,143.657318 
	C154.980789,149.259430 154.290634,155.081924 153.198380,160.981339 
	C153.530151,155.331406 154.264023,149.604538 155.334412,143.657318 
z"/>
<path fill="#41498C" opacity="1.000000" stroke="none" 
	d="
M145.099930,174.935165 
	C143.526321,175.109039 141.952713,175.282928 140.153564,174.884003 
	C139.925613,174.101959 139.923203,173.892746 139.920807,173.683548 
	C141.316437,173.689301 142.712082,173.695053 144.560104,174.013245 
	C145.041641,174.528854 145.070786,174.732010 145.099930,174.935165 
z"/>
<path fill="#4E4F90" opacity="1.000000" stroke="none" 
	d="
M145.410248,174.954803 
	C145.070786,174.732010 145.041641,174.528854 144.978699,174.018921 
	C145.772446,173.433289 146.599991,173.154434 147.764160,172.904022 
	C148.085052,173.106705 148.069275,173.280960 147.807739,173.815155 
	C147.290054,174.350006 147.090454,174.586060 146.963165,174.883255 
	C146.548965,174.913651 146.134750,174.944061 145.410248,174.954803 
z"/>
<path fill="#4E4F90" opacity="1.000000" stroke="none" 
	d="
M152.553085,161.767151 
	C152.716553,162.223541 152.630402,162.925598 152.243896,163.831116 
	C152.063507,163.360672 152.183487,162.686752 152.553085,161.767151 
z"/>
<path fill="#4E4F90" opacity="1.000000" stroke="none" 
	d="
M139.721848,173.643829 
	C139.923203,173.892746 139.925613,174.101959 139.896408,174.622894 
	C139.864807,174.934616 139.471756,174.948166 139.280807,174.904785 
	C139.084351,174.657669 139.078827,174.453964 139.095825,173.942780 
	C139.118332,173.635330 139.522888,173.604095 139.721848,173.643829 
z"/>
<path fill="#1960B9" opacity="1.000000" stroke="none" 
	d="
M117.879471,162.630524 
	C116.560738,163.645935 115.104004,164.322998 113.279884,165.009094 
	C111.745461,163.695190 110.578430,162.372253 109.306282,160.930145 
	C107.656387,162.067017 106.355431,162.963455 104.605515,164.169235 
	C101.478973,156.219543 103.506187,148.995407 105.014496,142.303680 
	C109.653351,147.265762 114.310822,152.247742 118.858681,157.112488 
	C118.620331,158.217545 118.180901,160.254868 117.879471,162.630524 
z"/>
<path fill="#1663BC" opacity="1.000000" stroke="none" 
	d="
M155.745361,100.074936 
	C151.791168,100.050644 147.777283,100.431923 143.903442,99.861710 
	C141.251358,99.471336 138.794327,97.755775 136.051117,96.322868 
	C136.619186,94.343689 137.386276,92.674278 138.895050,91.004654 
	C140.104462,90.992744 140.572174,90.981056 141.039902,90.969368 
	C144.355301,90.952187 147.670700,90.935005 151.916168,90.938522 
	C158.924210,90.943710 165.002197,90.928215 171.080170,90.912712 
	C172.441269,90.921822 173.802383,90.930931 175.833710,90.953369 
	C176.678635,90.957771 176.853333,90.948853 177.028015,90.939941 
	C178.724915,90.931679 180.421829,90.923416 182.921753,90.941856 
	C184.484863,90.970108 185.244949,90.971649 186.005051,90.973198 
	C191.013412,91.154961 188.323868,95.018616 189.061325,97.708252 
	C189.108017,98.151039 189.066437,98.108360 188.727295,98.082138 
	C187.535797,99.048042 186.683411,100.040161 185.831039,101.032288 
	C185.831039,101.032288 185.555725,101.143562 185.410248,101.126968 
	C181.148483,100.781990 177.032211,100.453613 172.032684,100.057365 
	C166.014740,100.017975 160.880051,100.046455 155.745361,100.074936 
z"/>
<path fill="#0647A0" opacity="1.000000" stroke="none" 
	d="
M155.787918,100.462082 
	C160.880051,100.046455 166.014740,100.017975 171.628601,99.998764 
	C171.261948,100.905540 170.416138,101.803055 169.321411,102.885376 
	C165.023193,103.063278 160.973877,103.056366 156.465942,103.125122 
	C155.948364,102.416939 155.889420,101.633080 155.787918,100.462082 
z"/>
<path fill="#34458D" opacity="1.000000" stroke="none" 
	d="
M218.579651,140.959259 
	C216.780670,143.303619 214.706604,145.639404 212.280167,147.959137 
	C212.087051,147.361984 212.246292,146.780899 212.553329,145.931732 
	C214.199997,144.172302 215.698868,142.680954 217.477692,141.039200 
	C217.939957,140.909439 218.122269,140.930069 218.579651,140.959259 
z"/>
<path fill="#41498C" opacity="1.000000" stroke="none" 
	d="
M134.013367,188.938660 
	C135.766968,189.641525 137.520554,190.344391 139.656662,191.389221 
	C140.370285,192.144104 140.701416,192.557007 141.032532,192.969925 
	C141.032532,192.969925 141.024399,192.983063 141.038086,192.971985 
	C141.030853,193.164413 141.009918,193.367935 140.956924,193.877228 
	C140.261627,194.050156 139.598389,193.917328 138.604431,193.719696 
	C136.229477,192.360550 134.185226,191.066208 132.343536,189.413177 
	C133.035202,189.015869 133.524277,188.977264 134.013367,188.938660 
z"/>
<path fill="#34458D" opacity="1.000000" stroke="none" 
	d="
M211.612366,148.007690 
	C210.025070,150.437439 208.106583,152.934616 205.976059,155.714798 
	C205.219940,155.748291 204.675842,155.498779 203.981964,154.971024 
	C206.315186,152.486893 208.798187,150.281021 211.612366,148.007690 
z"/>
<path fill="#41498C" opacity="1.000000" stroke="none" 
	d="
M122.013054,166.999207 
	C122.048882,166.775558 122.084709,166.551926 122.258972,166.013611 
	C122.900932,165.887054 123.404442,166.075150 124.082245,166.492004 
	C124.256538,166.720779 124.080391,166.910034 123.678680,166.979004 
	C122.855667,167.031723 122.434357,167.015457 122.013054,166.999207 
z"/>
<path fill="#41498C" opacity="1.000000" stroke="none" 
	d="
M122.310150,165.467133 
	C121.853157,165.378983 121.437408,164.980499 121.041245,164.262024 
	C121.491013,164.346939 121.921204,164.751862 122.310150,165.467133 
z"/>
<path fill="#41498C" opacity="1.000000" stroke="none" 
	d="
M121.030258,163.679596 
	C120.769768,163.787781 120.472923,163.618469 120.110497,163.191132 
	C120.361244,163.089432 120.677574,163.245758 121.030258,163.679596 
z"/>
<path fill="#1B5DB4" opacity="1.000000" stroke="none" 
	d="
M133.964813,188.590668 
	C133.524277,188.977264 133.035202,189.015869 132.182404,189.117981 
	C131.818695,189.181458 131.861267,189.103287 131.752472,188.823074 
	C131.244888,188.414246 130.846069,188.285629 130.447266,188.157013 
	C130.447266,188.157013 130.311264,188.284836 130.097778,187.982178 
	C129.563004,187.480499 129.241730,187.281494 128.920441,187.082474 
	C128.920441,187.082474 128.927094,187.158020 128.854919,186.871002 
	C128.524323,186.054626 128.265915,185.525284 128.007492,184.995941 
	C129.977081,186.078186 131.946671,187.160431 133.964813,188.590668 
z"/>
<path fill="#41498C" opacity="1.000000" stroke="none" 
	d="
M128.003616,184.997620 
	C128.265915,185.525284 128.524323,186.054626 128.817963,186.879517 
	C127.896309,186.778397 126.939423,186.381744 125.914192,185.581543 
	C125.845856,185.177994 126.060417,184.938934 126.383705,184.955322 
	C127.139229,184.978317 127.571472,184.984955 128.003708,184.991577 
	C128.003708,184.991577 127.999741,184.999313 128.003616,184.997620 
z"/>
<path fill="#41498C" opacity="1.000000" stroke="none" 
	d="
M123.755615,183.615768 
	C124.257057,183.219406 124.729980,183.129837 125.586746,183.356979 
	C126.000526,184.095428 126.030472,184.517181 126.060425,184.938934 
	C126.060417,184.938934 125.845856,185.177994 125.739418,185.301483 
	C124.997688,184.924164 124.362396,184.423370 123.755615,183.615768 
z"/>
<path fill="#41498C" opacity="1.000000" stroke="none" 
	d="
M128.951172,187.404480 
	C129.241730,187.281494 129.563004,187.480499 130.011932,187.945572 
	C129.753693,188.049911 129.367813,187.888199 128.951172,187.404480 
z"/>
<path fill="#41498C" opacity="1.000000" stroke="none" 
	d="
M130.614410,188.431641 
	C130.846069,188.285629 131.244888,188.414246 131.796967,188.824493 
	C131.560669,188.972855 131.171127,188.839569 130.614410,188.431641 
z"/>
<path fill="#374288" opacity="1.000000" stroke="none" 
	d="
M186.205170,101.060837 
	C186.683411,100.040161 187.535797,99.048042 188.739105,98.054794 
	C188.253143,99.065582 187.416229,100.077484 186.205170,101.060837 
z"/>
<path fill="#1960B9" opacity="1.000000" stroke="none" 
	d="
M122.011703,167.357422 
	C122.434357,167.015457 122.855667,167.031723 123.590294,167.073334 
	C124.514404,168.183929 125.125183,169.269150 125.884033,170.636047 
	C123.466301,172.877075 123.299507,172.744278 122.011703,167.357422 
z"/>
<path fill="#D28AB8" opacity="1.000000" stroke="none" 
	d="
M168.905716,63.185165 
	C168.365128,65.454948 167.824554,67.724724 166.719666,70.378555 
	C162.434265,72.384041 159.126663,71.905083 157.398483,68.014885 
	C156.022812,64.918198 157.076828,61.769547 160.320770,60.626980 
	C162.237167,59.952000 164.718994,60.882332 166.946533,61.090752 
	C166.946533,61.090752 166.995300,61.033367 167.019470,61.299530 
	C167.348404,61.740063 167.653152,61.914433 167.957901,62.088806 
	C167.957901,62.088806 167.983246,62.017521 167.986542,62.301327 
	C168.295135,62.785145 168.600418,62.985157 168.905716,63.185165 
z"/>
<path fill="#2F4790" opacity="1.000000" stroke="none" 
	d="
M166.930450,60.700924 
	C164.718994,60.882332 162.237167,59.952000 160.320770,60.626980 
	C157.076828,61.769547 156.022812,64.918198 157.398483,68.014885 
	C159.126663,71.905083 162.434265,72.384041 166.523026,70.668388 
	C165.343460,75.372017 161.296829,73.374527 159.282166,72.246315 
	C157.215088,71.088753 155.212357,67.691261 155.315811,65.369171 
	C155.423325,62.956097 157.604187,59.878075 159.772720,58.537106 
	C161.755798,57.310799 165.306976,56.660465 166.930450,60.700924 
z"/>
<path fill="#2F4790" opacity="1.000000" stroke="none" 
	d="
M167.877350,61.835258 
	C167.653152,61.914433 167.348404,61.740063 166.981827,61.299179 
	C167.212265,61.215687 167.504532,61.398701 167.877350,61.835258 
z"/>
<path fill="#2F4790" opacity="1.000000" stroke="none" 
	d="
M168.835938,62.921913 
	C168.600418,62.985157 168.295135,62.785145 167.949615,62.309547 
	C168.194992,62.242195 168.480576,62.450428 168.835938,62.921913 
z"/>
<path fill="#114A9C" opacity="1.000000" stroke="none" 
	d="
M171.062561,90.542046 
	C165.002197,90.928215 158.924210,90.943710 152.365936,90.925453 
	C151.930038,90.195297 151.974442,89.498894 152.065872,88.457420 
	C152.529724,88.058861 152.946518,88.005386 153.677704,87.918762 
	C159.343597,87.912712 164.695114,87.939812 170.511566,87.949593 
	C170.999329,88.678650 171.022141,89.425011 171.062561,90.542046 
z"/>
<path fill="#114A9C" opacity="1.000000" stroke="none" 
	d="
M185.819153,90.730499 
	C185.244949,90.971649 184.484863,90.970108 183.345734,90.932251 
	C183.855560,90.759895 184.744415,90.623856 185.819153,90.730499 
z"/>
<path fill="#114A9C" opacity="1.000000" stroke="none" 
	d="
M176.930878,90.780113 
	C176.853333,90.948853 176.678635,90.957771 176.242111,90.947701 
	C176.264786,90.825897 176.549271,90.723091 176.930878,90.780113 
z"/>
<path fill="#114A9C" opacity="1.000000" stroke="none" 
	d="
M140.883698,90.742371 
	C140.572174,90.981056 140.104462,90.992744 139.284866,90.996559 
	C139.531158,90.830910 140.129333,90.673141 140.883698,90.742371 
z"/>
<path fill="#1B5DB4" opacity="1.000000" stroke="none" 
	d="
M126.383713,184.955322 
	C126.030472,184.517181 126.000526,184.095428 125.948639,183.357330 
	C126.588814,183.475037 127.250931,183.909058 127.958382,184.667328 
	C127.571472,184.984955 127.139229,184.978317 126.383713,184.955322 
z"/>
<path fill="#38488F" opacity="1.000000" stroke="none" 
	d="
M141.010284,192.683502 
	C140.701416,192.557007 140.370285,192.144104 140.007935,191.457291 
	C140.313797,191.587952 140.650909,191.992508 141.010284,192.683502 
z"/>
<path fill="#41498C" opacity="1.000000" stroke="none" 
	d="
M147.201828,174.823975 
	C147.090454,174.586060 147.290054,174.350006 147.775269,174.075592 
	C147.925186,174.321899 147.742493,174.584778 147.201828,174.823975 
z"/>
</svg>